# Blender 4.5.3 LTS
# www.blender.org
mtllib airplane.mtl
o Cube
v -0.714708 0.525385 4.009252
v -0.918175 -0.525385 4.230851
v -1.402890 0.325899 2.483527
v -1.402890 -0.325899 2.483527
v -0.189874 0.108647 -2.768519
v -1.402890 0.325899 0.247049
v -0.189874 -0.108647 -2.768519
v -1.402890 -0.325899 0.247049
v 0.000000 0.525385 4.230851
v 0.000000 0.525385 1.419322
v 0.000000 -0.525385 2.768519
v 0.000000 -0.525385 4.230851
v 0.000000 -0.525385 -0.572517
v 0.000000 -0.108647 -2.768519
v 0.000000 0.525385 -0.197408
v 0.000000 0.108647 -2.768519
v -0.918175 -0.525385 2.768519
v -0.714708 0.525385 3.051918
v -0.918175 -0.525385 -0.572517
v -0.573759 0.525385 -0.197408
v -3.591504 -0.505599 4.215462
v -3.591504 -0.169993 4.215462
v -3.205979 -0.505599 3.532475
v -3.205979 -0.169993 3.532475
v -4.250606 -0.325899 2.483527
v -4.250606 0.033918 2.483527
v -4.250606 -0.325899 1.625403
v -4.250606 0.033918 1.625403
v -1.444145 -0.525385 4.230851
v -1.444145 0.293298 4.230851
v -1.444145 -0.525385 2.891097
v -1.444145 0.293298 2.891097
v -0.918175 0.525385 4.230851
v -0.203467 0.525385 4.009252
v -0.573759 0.525385 1.419322
v -0.203467 0.525385 3.051918
v -0.595906 1.486265 3.674431
v -0.595906 1.486265 4.120916
v -0.834340 1.486265 4.120916
v -0.834340 1.486265 3.674431
v 0.714708 0.525385 4.009252
v 0.918175 -0.525385 4.230851
v 1.402890 0.325899 2.483527
v 1.402890 -0.325899 2.483527
v 0.189874 0.108647 -2.768519
v 1.402890 0.325899 0.247049
v 0.189874 -0.108647 -2.768519
v 1.402890 -0.325899 0.247049
v 0.918175 -0.525385 2.768519
v 0.714708 0.525385 3.051918
v 0.918175 -0.525385 -0.572517
v 0.573759 0.525385 -0.197408
v 3.591504 -0.505599 4.215462
v 3.591504 -0.169993 4.215462
v 3.205979 -0.505599 3.532475
v 3.205979 -0.169993 3.532475
v 4.250606 -0.325899 2.483527
v 4.250606 0.033918 2.483527
v 4.250606 -0.325899 1.625403
v 4.250606 0.033918 1.625403
v 1.444145 -0.525385 4.230851
v 1.444145 0.293298 4.230851
v 1.444145 -0.525385 2.891097
v 1.444145 0.293298 2.891097
v 0.918175 0.525385 4.230851
v 0.203467 0.525385 4.009252
v 0.573759 0.525385 1.419322
v 0.203467 0.525385 3.051918
v 0.595906 1.486265 3.674431
v 0.595906 1.486265 4.120916
v 0.834340 1.486265 4.120916
v 0.834340 1.486265 3.674431
v 0.000000 0.525385 2.768519
v -0.918175 0.525385 2.768519
v -0.918175 0.525385 -0.572517
v 0.000000 0.525385 -0.572517
v 0.918175 0.525385 2.768519
v 0.918175 0.525385 -0.572517
v 0.000000 1.032941 0.043875
v 0.000000 0.791658 -0.197408
v 0.000000 1.032941 1.178039
v 0.000000 0.791658 1.419322
v -0.352219 1.032941 1.178039
v -0.573759 0.791658 1.419322
v -0.352219 1.032941 0.043875
v -0.573759 0.791658 -0.197408
v 0.573759 0.791658 1.419322
v 0.352219 1.032941 1.178039
v 0.573759 0.791658 -0.197408
v 0.352219 1.032941 0.043875
vn -0.0000 -1.0000 -0.0000
vn -0.0000 0.5437 -0.8393
vn -0.0000 -0.0000 1.0000
vn -0.0000 -0.9825 -0.1864
vn -0.9492 -0.0000 -0.3148
vn -0.1020 0.9948 -0.0000
vn -0.0000 -0.0000 -1.0000
vn -0.0000 0.9825 -0.1864
vn -0.5068 -0.0000 0.8620
vn -0.8607 -0.0000 -0.5091
vn -0.3806 0.9247 -0.0000
vn -0.3806 -0.9247 -0.0000
vn -0.8708 -0.0000 -0.4916
vn -0.2270 -0.0000 -0.9739
vn -0.4037 0.9149 -0.0000
vn -1.0000 -0.0000 -0.0000
vn -0.4357 -0.0000 -0.9001
vn -0.0072 -0.0000 1.0000
vn -0.0092 -0.9999 -0.0052
vn -0.3421 -0.0000 -0.9397
vn -0.2543 0.9671 -0.0000
vn -0.0000 1.0000 -0.0000
vn 0.9258 0.3781 -0.0000
vn -0.9923 -0.1235 -0.0000
vn -0.0000 -0.1154 0.9933
vn 0.9492 -0.0000 -0.3148
vn 0.1020 0.9948 -0.0000
vn 0.5068 -0.0000 0.8620
vn 0.8607 -0.0000 -0.5091
vn 0.3806 0.9247 -0.0000
vn 0.3806 -0.9247 -0.0000
vn 0.8708 -0.0000 -0.4916
vn 0.2270 -0.0000 -0.9739
vn 0.4037 0.9149 -0.0000
vn 1.0000 -0.0000 -0.0000
vn 0.4357 -0.0000 -0.9001
vn 0.0072 -0.0000 1.0000
vn 0.0092 -0.9999 -0.0052
vn 0.3421 -0.0000 -0.9397
vn 0.2086 0.9709 -0.1178
vn -0.9258 0.3781 -0.0000
vn 0.9923 -0.1235 -0.0000
vn -0.0000 0.7071 0.7071
vn -0.7366 0.6763 -0.0000
vn -0.0000 0.7071 -0.7071
vn 0.7366 0.6763 -0.0000
vn -0.0112 -0.9999 -0.0000
vn -0.2086 0.9709 -0.1178
vn 0.0112 -0.9999 -0.0000
vn 0.2543 0.9671 -0.0000
s 0
usemtl Material
f 2//1 31//1 17//1
f 18//2 37//2 36//2
f 9//3 2//3 12//3
f 13//4 7//4 14//4
f 7//5 75//5 5//5
f 3//6 28//6 26//6
f 13//1 17//1 19//1
f 5//7 14//7 7//7
f 76//8 5//8 75//8
f 11//1 2//1 17//1
f 3//9 17//9 74//9
f 6//10 19//10 8//10
f 6//11 74//11 75//11
f 8//12 17//12 4//12
f 23//13 22//13 24//13
f 17//14 32//14 74//14
f 2//3 30//3 29//3
f 33//15 32//15 30//15
f 26//16 27//16 25//16
f 4//3 26//3 25//3
f 4//1 27//1 8//1
f 8//17 28//17 6//17
f 22//18 29//18 30//18
f 23//19 29//19 21//19
f 24//20 31//20 23//20
f 24//21 30//21 32//21
f 1//22 9//22 34//22
f 36//22 74//22 18//22
f 18//22 33//22 1//22
f 36//22 9//22 73//22
f 40//22 38//22 37//22
f 34//23 37//23 38//23
f 1//24 40//24 18//24
f 1//25 38//25 39//25
f 63//1 42//1 49//1
f 69//2 50//2 68//2
f 42//3 9//3 12//3
f 13//4 47//4 51//4
f 78//26 47//26 45//26
f 43//27 60//27 46//27
f 49//1 13//1 51//1
f 14//7 45//7 47//7
f 45//8 76//8 78//8
f 42//1 11//1 49//1
f 43//28 49//28 44//28
f 51//29 46//29 48//29
f 46//30 77//30 43//30
f 49//31 48//31 44//31
f 54//32 55//32 56//32
f 64//33 49//33 77//33
f 42//3 62//3 65//3
f 65//34 64//34 77//34
f 59//35 58//35 57//35
f 44//3 58//3 43//3
f 59//1 44//1 48//1
f 60//36 48//36 46//36
f 54//37 61//37 53//37
f 61//38 55//38 53//38
f 63//39 56//39 55//39
f 56//40 62//40 54//40
f 66//22 65//22 41//22
f 77//22 68//22 50//22
f 65//22 50//22 41//22
f 68//22 9//22 66//22
f 70//22 72//22 69//22
f 66//41 69//41 68//41
f 72//42 41//42 50//42
f 41//25 70//25 66//25
f 35//22 73//22 10//22
f 35//22 75//22 74//22
f 20//22 76//22 75//22
f 67//22 73//22 77//22
f 67//22 78//22 52//22
f 52//22 76//22 15//22
f 83//43 82//43 81//43
f 84//44 85//44 86//44
f 85//45 80//45 86//45
f 82//43 88//43 81//43
f 88//46 89//46 90//46
f 80//45 90//45 89//45
f 81//22 90//22 79//22
f 85//22 81//22 79//22
f 15//7 89//7 52//7
f 20//7 80//7 15//7
f 67//3 82//3 10//3
f 10//3 84//3 35//3
f 35//16 86//16 20//16
f 52//35 87//35 67//35
f 2//1 29//1 31//1
f 18//2 40//2 37//2
f 9//3 33//3 2//3
f 13//4 19//4 7//4
f 7//5 19//5 75//5
f 3//6 6//6 28//6
f 13//1 11//1 17//1
f 5//7 16//7 14//7
f 76//8 16//8 5//8
f 11//1 12//1 2//1
f 3//9 4//9 17//9
f 6//10 75//10 19//10
f 6//11 3//11 74//11
f 8//12 19//12 17//12
f 23//13 21//13 22//13
f 17//14 31//14 32//14
f 2//3 33//3 30//3
f 33//15 74//15 32//15
f 26//16 28//16 27//16
f 4//3 3//3 26//3
f 4//1 25//1 27//1
f 8//17 27//17 28//17
f 22//18 21//18 29//18
f 23//47 31//47 29//47
f 24//20 32//20 31//20
f 24//48 22//48 30//48
f 1//22 33//22 9//22
f 36//22 73//22 74//22
f 18//22 74//22 33//22
f 36//22 34//22 9//22
f 40//22 39//22 38//22
f 34//23 36//23 37//23
f 1//24 39//24 40//24
f 1//25 34//25 38//25
f 63//1 61//1 42//1
f 69//2 72//2 50//2
f 42//3 65//3 9//3
f 13//4 14//4 47//4
f 78//26 51//26 47//26
f 43//27 58//27 60//27
f 49//1 11//1 13//1
f 14//7 16//7 45//7
f 45//8 16//8 76//8
f 42//1 12//1 11//1
f 43//28 77//28 49//28
f 51//29 78//29 46//29
f 46//30 78//30 77//30
f 49//31 51//31 48//31
f 54//32 53//32 55//32
f 64//33 63//33 49//33
f 42//3 61//3 62//3
f 65//34 62//34 64//34
f 59//35 60//35 58//35
f 44//3 57//3 58//3
f 59//1 57//1 44//1
f 60//36 59//36 48//36
f 54//37 62//37 61//37
f 61//49 63//49 55//49
f 63//39 64//39 56//39
f 56//50 64//50 62//50
f 66//22 9//22 65//22
f 77//22 73//22 68//22
f 65//22 77//22 50//22
f 68//22 73//22 9//22
f 70//22 71//22 72//22
f 66//41 70//41 69//41
f 72//42 71//42 41//42
f 41//25 71//25 70//25
f 35//22 74//22 73//22
f 35//22 20//22 75//22
f 20//22 15//22 76//22
f 67//22 10//22 73//22
f 67//22 77//22 78//22
f 52//22 78//22 76//22
f 83//43 84//43 82//43
f 84//44 83//44 85//44
f 85//45 79//45 80//45
f 82//43 87//43 88//43
f 88//46 87//46 89//46
f 80//45 79//45 90//45
f 81//22 88//22 90//22
f 85//22 83//22 81//22
f 15//7 80//7 89//7
f 20//7 86//7 80//7
f 67//3 87//3 82//3
f 10//3 82//3 84//3
f 35//16 84//16 86//16
f 52//35 89//35 87//35
